<svg width="280" height="280" version="1.1" xmlns="http://www.w3.org/2000/svg" desc="Created with imagetracer.js version 1.2.6" ><path fill="rgb(0,0,0)" stroke="rgb(0,0,0)" stroke-width="1" opacity="0" d="M 0 0 L 280 0 L 280 280 L 0 280 L 0 0 Z M 126 45 L 106 51 L 87 63 Q 75 73 66 87 L 59 102 L 56 116 L 52 116 L 46 119 L 43 119 Q 30 124 22 133 L 18 139 L 15 140 L 4 165 L 4 191 Q 8 206 16 217 Q 23 227 35 233 L 56 241 L 226 241 L 243 235 L 253 229 Q 271 216 277 191 L 277 166 L 276 161 L 268 144 L 261 135 L 254 128 Q 251 129 252 126 L 239 119 L 225 115 L 204 115 L 199 116 L 184 122 L 170 132 L 167 136 L 154 147 L 151 151 L 147 154 Q 148 156 146 155 L 143 159 L 128 172 L 124 177 L 104 195 L 102 198 L 100 199 L 98 202 L 96 203 L 94 206 L 93 206 L 83 216 L 68 216 L 62 214 L 57 214 L 51 212 L 42 206 L 32 193 L 29 181 L 29 176 L 32 164 L 36 158 Q 35 155 38 156 L 39 154 Q 38 151 41 152 L 43 148 L 56 142 L 65 140 L 77 141 L 91 149 Q 93 148 92 151 L 98 154 L 113 167 Q 115 171 117 167 Q 119 168 118 166 L 133 152 L 103 125 Q 95 119 83 117 Q 85 101 95 91 Q 104 80 118 74 L 136 70 L 153 71 L 166 75 L 181 85 Q 190 93 194 105 L 212 102 Q 217 101 219 103 L 221 102 Q 217 86 207 76 L 189 58 L 176 51 L 156 45 L 126 45 Z " /><path fill="rgb(0,0,0)" stroke="rgb(0,0,0)" stroke-width="1" opacity="0" d="M 210.5 140 L 223.5 141 L 238 148 L 239.5 151 L 242 152.5 L 248 160.5 Q 248 166.5 251 169.5 L 252 180.5 L 249 192.5 L 239.5 206 L 228.5 213 L 213.5 216 L 120.5 216 L 121.5 214 L 125 211.5 Q 124.3 209.3 126.5 210 L 129.5 206 L 132 204.5 L 133.5 202 L 152 185.5 Q 151.3 183.3 153.5 184 L 192.5 147 L 204.5 141 Q 209.2 142.3 210.5 140 Z " /><path fill="rgb(0,110,254)" stroke="rgb(0,110,254)" stroke-width="1" opacity="0.7803921568627451" d="M 129.5 45 L 136 45.5 L 129.5 46 L 129.5 45 Z " /><path fill="rgb(0,110,254)" stroke="rgb(0,110,254)" stroke-width="1" opacity="0.7803921568627451" d="M 145.5 45 L 152 45.5 L 145.5 46 L 145.5 45 Z " /><path fill="rgb(0,110,254)" stroke="rgb(0,110,254)" stroke-width="1" opacity="0.7803921568627451" d="M 123.5 46 L 126 46.5 L 123.5 47 L 123.5 46 Z " /><path fill="rgb(0,110,254)" stroke="rgb(0,110,254)" stroke-width="1" opacity="0.7803921568627451" d="M 155.5 46 L 159 46.5 L 155.5 47 L 155.5 46 Z " /><path fill="rgb(0,110,254)" stroke="rgb(0,110,254)" stroke-width="1" opacity="0.7803921568627451" d="M 118.5 47 L 121 47.5 L 118.5 48 L 118.5 47 Z " /><path fill="rgb(0,110,254)" stroke="rgb(0,110,254)" stroke-width="1" opacity="0.7803921568627451" d="M 160.5 47 L 163 47.5 L 160.5 48 L 160.5 47 Z " /><path fill="rgb(0,110,254)" stroke="rgb(0,110,254)" stroke-width="1" opacity="0.7803921568627451" d="M 97.5 56 L 96.5 58 L 97.5 56 Z " /><path fill="rgb(0,110,254)" stroke="rgb(0,110,254)" stroke-width="1" opacity="0.7803921568627451" d="M 92.5 59 L 90.5 62 L 92.5 59 Z " /><path fill="rgb(0,110,254)" stroke="rgb(0,110,254)" stroke-width="1" opacity="0.7803921568627451" d="M 188.5 59 L 190.5 62 L 188.5 59 Z " /><path fill="rgb(0,110,254)" stroke="rgb(0,110,254)" stroke-width="1" opacity="0.7803921568627451" d="M 85.5 65 L 84.5 67 L 81.5 69 L 83.5 66 L 85.5 65 Z " /><path fill="rgb(0,110,254)" stroke="rgb(0,110,254)" stroke-width="1" opacity="0.7803921568627451" d="M 197.5 66 L 202.5 72 L 197.5 66 Z " /><path fill="rgb(0,110,254)" stroke="rgb(0,110,254)" stroke-width="1" opacity="0.7803921568627451" d="M 133.5 69 L 148 69.5 L 133.5 70 L 133.5 69 Z " /><path fill="rgb(0,110,254)" stroke="rgb(0,110,254)" stroke-width="1" opacity="0.7803921568627451" d="M 79.5 70 L 78.5 72 L 79.5 70 Z " /><path fill="rgb(0,110,254)" stroke="rgb(0,110,254)" stroke-width="1" opacity="0.7803921568627451" d="M 127.5 70 L 130 70.5 L 127.5 71 L 127.5 70 Z " /><path fill="rgb(0,110,254)" stroke="rgb(0,110,254)" stroke-width="1" opacity="0.7803921568627451" d="M 151.5 70 L 154 70.5 L 151.5 71 L 151.5 70 Z " /><path fill="rgb(0,110,254)" stroke="rgb(0,110,254)" stroke-width="1" opacity="0.7803921568627451" d="M 77.5 73 L 76.5 75 L 77.5 73 Z " /><path fill="rgb(0,110,254)" stroke="rgb(0,110,254)" stroke-width="1" opacity="0.7803921568627451" d="M 115.5 74 L 114.5 76 L 112.5 77 L 113.5 75 L 115.5 74 Z " /><path fill="rgb(0,110,254)" stroke="rgb(0,110,254)" stroke-width="1" opacity="0.7803921568627451" d="M 167.5 75 L 168.5 77 L 167.5 75 Z " /><path fill="rgb(0,110,254)" stroke="rgb(0,110,254)" stroke-width="1" opacity="0.7803921568627451" d="M 108.5 78 L 107.5 80 L 108.5 78 Z " /><path fill="rgb(0,110,254)" stroke="rgb(0,110,254)" stroke-width="1" opacity="0.7803921568627451" d="M 172.5 78 L 173.5 80 L 172.5 78 Z " /><path fill="rgb(0,110,254)" stroke="rgb(0,110,254)" stroke-width="1" opacity="0.7803921568627451" d="M 208.5 78 L 212 82.5 L 209 80.5 L 208.5 78 Z " /><path fill="rgb(0,110,254)" stroke="rgb(0,110,254)" stroke-width="1" opacity="0.7803921568627451" d="M 72.5 79 L 70.5 82 L 72.5 79 Z " /><path fill="rgb(0,110,254)" stroke="rgb(0,110,254)" stroke-width="1" opacity="0.7803921568627451" d="M 105.5 80 L 104.5 82 L 105.5 80 Z " /><path fill="rgb(0,110,254)" stroke="rgb(0,110,254)" stroke-width="1" opacity="0.7803921568627451" d="M 175.5 80 L 176.5 82 L 175.5 80 Z " /><path fill="rgb(0,110,254)" stroke="rgb(0,110,254)" stroke-width="1" opacity="0.7803921568627451" d="M 102.5 82 L 99.5 86 L 102.5 82 Z " /><path fill="rgb(0,110,254)" stroke="rgb(0,110,254)" stroke-width="1" opacity="0.7803921568627451" d="M 178.5 82 L 181.5 86 L 178.5 82 Z " /><path fill="rgb(0,110,254)" stroke="rgb(0,110,254)" stroke-width="1" opacity="0.7803921568627451" d="M 69.5 83 L 68.5 85 L 69.5 83 Z " /><path fill="rgb(0,110,254)" stroke="rgb(0,110,254)" stroke-width="1" opacity="0.7803921568627451" d="M 212.5 84 L 216 89.5 L 214 88.5 L 212.5 84 Z " /><path fill="rgb(0,110,254)" stroke="rgb(0,110,254)" stroke-width="1" opacity="0.7803921568627451" d="M 67.5 86 L 67 87.5 L 66.5 89 L 66 87.5 L 67.5 86 Z " /><path fill="rgb(0,110,254)" stroke="rgb(0,110,254)" stroke-width="1" opacity="0.7803921568627451" d="M 97.5 87 L 93.5 92 L 97.5 87 Z " /><path fill="rgb(0,110,254)" stroke="rgb(0,110,254)" stroke-width="1" opacity="0.7803921568627451" d="M 183.5 87 L 186.5 91 L 183.5 87 Z " /><path fill="rgb(0,110,254)" stroke="rgb(0,110,254)" stroke-width="1" opacity="0.7803921568627451" d="M 65.5 90 L 65 91.5 L 63.5 95 L 63 93.5 L 65.5 90 Z " /><path fill="rgb(0,110,254)" stroke="rgb(0,110,254)" stroke-width="1" opacity="0.7803921568627451" d="M 92.5 93 L 90.5 96 L 92.5 93 Z " /><path fill="rgb(0,110,254)" stroke="rgb(0,110,254)" stroke-width="1" opacity="0.7803921568627451" d="M 191.5 97 L 192.5 99 L 191.5 97 Z " /><path fill="rgb(0,110,254)" stroke="rgb(0,110,254)" stroke-width="1" opacity="0.7803921568627451" d="M 211.5 101 L 219 101.5 L 211.5 102 L 211.5 101 Z " /><path fill="rgb(0,110,254)" stroke="rgb(0,110,254)" stroke-width="1" opacity="0.7803921568627451" d="M 201.5 102 L 206 102.5 L 201.5 103 L 201.5 102 Z " /><path fill="rgb(0,110,254)" stroke="rgb(0,110,254)" stroke-width="1" opacity="0.7803921568627451" d="M 84.5 107 L 85 108.5 L 83.5 111 L 83 109.5 L 84.5 107 Z " /><path fill="rgb(0,110,254)" stroke="rgb(0,110,254)" stroke-width="1" opacity="0.7803921568627451" d="M 57.5 112 L 58 115.5 L 57 115.5 L 57.5 112 Z " /><path fill="rgb(0,110,255)" stroke="rgb(0,110,255)" stroke-width="1" opacity="0.996078431372549" d="M 136.5 45 L 154.5 46 L 163.5 48 Q 182.4 53.1 195 64.5 Q 194.3 66.8 196.5 66 Q 213 79 220 101.5 L 218.5 101 L 201.5 102 L 195 104 L 191 95.5 L 178.5 82 L 165.5 74 L 153.5 70 L 133.5 69 Q 106.5 73.5 93 91.5 L 85 104.5 L 81.5 117 L 72.5 115 L 61.5 115 L 58 116 L 58 109.5 L 62 97.5 L 75 75 L 78 73.5 L 83.5 67 L 86 65.5 Q 85.3 63.3 87.5 64 Q 96.2 55.7 108.5 51 L 121.5 47 L 135.5 46 L 136.5 45 Z " /><path fill="rgb(0,108,168)" stroke="rgb(0,108,168)" stroke-width="1" opacity="0.16470588235294117" d="M 125.5 45 L 129 45.5 L 125.5 46 L 125.5 45 Z " /><path fill="rgb(0,108,168)" stroke="rgb(0,108,168)" stroke-width="1" opacity="0.16470588235294117" d="M 152.5 45 L 156 45.5 L 152.5 46 L 152.5 45 Z " /><path fill="rgb(0,108,168)" stroke="rgb(0,108,168)" stroke-width="1" opacity="0.16470588235294117" d="M 120.5 46 L 123 46.5 L 120.5 47 L 120.5 46 Z " /><path fill="rgb(0,108,168)" stroke="rgb(0,108,168)" stroke-width="1" opacity="0.16470588235294117" d="M 105.5 51 L 107 51.5 L 104.5 53 L 105.5 51 Z " /><path fill="rgb(0,108,168)" stroke="rgb(0,108,168)" stroke-width="1" opacity="0.16470588235294117" d="M 175.5 51 L 179 53.5 L 177.5 53 L 175.5 51 Z " /><path fill="rgb(0,108,168)" stroke="rgb(0,108,168)" stroke-width="1" opacity="0.16470588235294117" d="M 99.5 54 L 101 54.5 L 98.5 56 L 99.5 54 Z " /><path fill="rgb(0,108,168)" stroke="rgb(0,108,168)" stroke-width="1" opacity="0.16470588235294117" d="M 181.5 54 L 182.5 56 L 181.5 54 Z " /><path fill="rgb(0,108,168)" stroke="rgb(0,108,168)" stroke-width="1" opacity="0.16470588235294117" d="M 96.5 56 L 95.5 58 L 96.5 56 Z " /><path fill="rgb(0,108,168)" stroke="rgb(0,108,168)" stroke-width="1" opacity="0.16470588235294117" d="M 184.5 56 L 185.5 58 L 184.5 56 Z " /><path fill="rgb(0,108,168)" stroke="rgb(0,108,168)" stroke-width="1" opacity="0.16470588235294117" d="M 187.5 58 L 192 61.5 L 188.5 59 L 187.5 58 Z " /><path fill="rgb(0,108,168)" stroke="rgb(0,108,168)" stroke-width="1" opacity="0.16470588235294117" d="M 91.5 59 L 88.5 63 L 91.5 59 Z " /><path fill="rgb(0,108,168)" stroke="rgb(0,108,168)" stroke-width="1" opacity="0.16470588235294117" d="M 193.5 62 L 196.5 66 L 193.5 62 Z " /><path fill="rgb(0,108,168)" stroke="rgb(0,108,168)" stroke-width="1" opacity="0.16470588235294117" d="M 86.5 63 L 84.5 66 L 86.5 63 Z " /><path fill="rgb(0,108,168)" stroke="rgb(0,108,168)" stroke-width="1" opacity="0.16470588235294117" d="M 130.5 70 L 135 70.5 L 130.5 71 L 130.5 70 Z " /><path fill="rgb(0,108,168)" stroke="rgb(0,108,168)" stroke-width="1" opacity="0.16470588235294117" d="M 147.5 70 L 151 70.5 L 147.5 71 L 147.5 70 Z " /><path fill="rgb(0,108,168)" stroke="rgb(0,108,168)" stroke-width="1" opacity="0.16470588235294117" d="M 125.5 71 L 128 71.5 L 125.5 72 L 125.5 71 Z " /><path fill="rgb(0,108,168)" stroke="rgb(0,108,168)" stroke-width="1" opacity="0.16470588235294117" d="M 77.5 72 L 74.5 76 L 77.5 72 Z " /><path fill="rgb(0,108,168)" stroke="rgb(0,108,168)" stroke-width="1" opacity="0.16470588235294117" d="M 203.5 72 L 204.5 74 L 203.5 72 Z " /><path fill="rgb(0,108,168)" stroke="rgb(0,108,168)" stroke-width="1" opacity="0.16470588235294117" d="M 116.5 74 L 115.5 76 L 116.5 74 Z " /><path fill="rgb(0,108,168)" stroke="rgb(0,108,168)" stroke-width="1" opacity="0.16470588235294117" d="M 166.5 75 L 167.5 77 L 166.5 75 Z " /><path fill="rgb(0,108,168)" stroke="rgb(0,108,168)" stroke-width="1" opacity="0.16470588235294117" d="M 73.5 77 L 70.5 81 L 73.5 77 Z " /><path fill="rgb(0,108,168)" stroke="rgb(0,108,168)" stroke-width="1" opacity="0.16470588235294117" d="M 69.5 82 L 68.5 84 L 69.5 82 Z " /><path fill="rgb(0,108,168)" stroke="rgb(0,108,168)" stroke-width="1" opacity="0.16470588235294117" d="M 103.5 82 L 100.5 86 L 103.5 82 Z " /><path fill="rgb(0,108,168)" stroke="rgb(0,108,168)" stroke-width="1" opacity="0.16470588235294117" d="M 177.5 82 L 179.5 85 L 177.5 82 Z " /><path fill="rgb(0,108,168)" stroke="rgb(0,108,168)" stroke-width="1" opacity="0.16470588235294117" d="M 65.5 89 L 64.5 91 L 65.5 89 Z " /><path fill="rgb(0,108,168)" stroke="rgb(0,108,168)" stroke-width="1" opacity="0.16470588235294117" d="M 94.5 91 L 93.5 93 L 94.5 91 Z " /><path fill="rgb(0,108,168)" stroke="rgb(0,108,168)" stroke-width="1" opacity="0.16470588235294117" d="M 188.5 93 L 191 96.5 L 189 95.5 L 188.5 93 Z " /><path fill="rgb(0,108,168)" stroke="rgb(0,108,168)" stroke-width="1" opacity="0.16470588235294117" d="M 91.5 95 L 90.5 97 L 91.5 95 Z " /><path fill="rgb(0,108,168)" stroke="rgb(0,108,168)" stroke-width="1" opacity="0.16470588235294117" d="M 219.5 97 L 221 99.5 L 220 99.5 L 219.5 97 Z " /><path fill="rgb(0,108,168)" stroke="rgb(0,108,168)" stroke-width="1" opacity="0.16470588235294117" d="M 191.5 98 L 192.5 100 L 191.5 98 Z " /><path fill="rgb(0,108,168)" stroke="rgb(0,108,168)" stroke-width="1" opacity="0.16470588235294117" d="M 60.5 99 L 61 100.5 L 59.5 103 L 59 101.5 L 60.5 99 Z " /><path fill="rgb(0,108,168)" stroke="rgb(0,108,168)" stroke-width="1" opacity="0.16470588235294117" d="M 88.5 100 L 87.5 102 L 88.5 100 Z " /><path fill="rgb(0,108,168)" stroke="rgb(0,108,168)" stroke-width="1" opacity="0.16470588235294117" d="M 206.5 102 L 211 102.5 L 206.5 103 L 206.5 102 Z " /><path fill="rgb(0,108,168)" stroke="rgb(0,108,168)" stroke-width="1" opacity="0.16470588235294117" d="M 57.5 109 L 58 111.5 L 57 111.5 L 57.5 109 Z " /><path fill="rgb(0,108,168)" stroke="rgb(0,108,168)" stroke-width="1" opacity="0.16470588235294117" d="M 82.5 114 L 83 116.5 L 82 116.5 L 82.5 114 Z " /><path fill="rgb(0,108,168)" stroke="rgb(0,108,168)" stroke-width="1" opacity="0.16470588235294117" d="M 203.5 115 L 207 115.5 L 203.5 116 L 203.5 115 Z " /><path fill="rgb(0,108,168)" stroke="rgb(0,108,168)" stroke-width="1" opacity="0.16470588235294117" d="M 221.5 115 L 225 115.5 L 221.5 116 L 221.5 115 Z " /><path fill="rgb(0,108,168)" stroke="rgb(0,108,168)" stroke-width="1" opacity="0.16470588235294117" d="M 51.5 116 L 54 116.5 L 51.5 117 L 51.5 116 Z " /><path fill="rgb(0,108,168)" stroke="rgb(0,108,168)" stroke-width="1" opacity="0.16470588235294117" d="M 38.5 121 L 37.5 123 L 38.5 121 Z " /><path fill="rgb(0,108,168)" stroke="rgb(0,108,168)" stroke-width="1" opacity="0.16470588235294117" d="M 97.5 122 L 98.5 124 L 97.5 122 Z " /><path fill="rgb(0,108,168)" stroke="rgb(0,108,168)" stroke-width="1" opacity="0.16470588235294117" d="M 183.5 122 L 182.5 124 L 183.5 122 Z " /><path fill="rgb(0,108,168)" stroke="rgb(0,108,168)" stroke-width="1" opacity="0.16470588235294117" d="M 244.5 122 L 245.5 124 L 244.5 122 Z " /><path fill="rgb(0,108,168)" stroke="rgb(0,108,168)" stroke-width="1" opacity="0.16470588235294117" d="M 31.5 125 L 30.5 127 L 31.5 125 Z " /><path fill="rgb(0,108,168)" stroke="rgb(0,108,168)" stroke-width="1" opacity="0.16470588235294117" d="M 102.5 125 L 103.5 127 L 102.5 125 Z " /><path fill="rgb(0,108,168)" stroke="rgb(0,108,168)" stroke-width="1" opacity="0.16470588235294117" d="M 178.5 125 L 177.5 127 L 178.5 125 Z " /><path fill="rgb(0,108,168)" stroke="rgb(0,108,168)" stroke-width="1" opacity="0.16470588235294117" d="M 27.5 128 L 23.5 133 L 27.5 128 Z " /><path fill="rgb(0,108,168)" stroke="rgb(0,108,168)" stroke-width="1" opacity="0.16470588235294117" d="M 171.5 131 L 170.5 133 L 167.5 135 L 169.5 132 L 171.5 131 Z " /><path fill="rgb(0,108,168)" stroke="rgb(0,108,168)" stroke-width="1" opacity="0.16470588235294117" d="M 256.5 131 L 261 134.5 L 258.5 133 L 256.5 131 Z " /><path fill="rgb(0,108,168)" stroke="rgb(0,108,168)" stroke-width="1" opacity="0.16470588235294117" d="M 21.5 133 L 20.5 135 L 21.5 133 Z " /><path fill="rgb(0,108,168)" stroke="rgb(0,108,168)" stroke-width="1" opacity="0.16470588235294117" d="M 19.5 136 L 18.5 138 L 19.5 136 Z " /><path fill="rgb(0,108,168)" stroke="rgb(0,108,168)" stroke-width="1" opacity="0.16470588235294117" d="M 165.5 136 L 164.5 138 L 165.5 136 Z " /><path fill="rgb(0,108,168)" stroke="rgb(0,108,168)" stroke-width="1" opacity="0.16470588235294117" d="M 117.5 137 L 119.5 140 L 117.5 137 Z " /><path fill="rgb(0,108,168)" stroke="rgb(0,108,168)" stroke-width="1" opacity="0.16470588235294117" d="M 15.5 140 L 16 141.5 L 14 142.5 L 15.5 140 Z " /><path fill="rgb(0,108,168)" stroke="rgb(0,108,168)" stroke-width="1" opacity="0.16470588235294117" d="M 60.5 140 L 64 140.5 L 60.5 141 L 60.5 140 Z " /><path fill="rgb(0,108,168)" stroke="rgb(0,108,168)" stroke-width="1" opacity="0.16470588235294117" d="M 71.5 140 L 75 140.5 L 71.5 141 L 71.5 140 Z " /><path fill="rgb(0,108,168)" stroke="rgb(0,108,168)" stroke-width="1" opacity="0.16470588235294117" d="M 206.5 140 L 210 140.5 L 206.5 141 L 206.5 140 Z " /><path fill="rgb(0,108,168)" stroke="rgb(0,108,168)" stroke-width="1" opacity="0.16470588235294117" d="M 218.5 140 L 221 140.5 L 218.5 141 L 218.5 140 Z " /><path fill="rgb(0,108,168)" stroke="rgb(0,108,168)" stroke-width="1" opacity="0.16470588235294117" d="M 121.5 141 L 122.5 143 L 121.5 141 Z " /><path fill="rgb(0,108,168)" stroke="rgb(0,108,168)" stroke-width="1" opacity="0.16470588235294117" d="M 159.5 142 L 158.5 144 L 159.5 142 Z " /><path fill="rgb(0,108,168)" stroke="rgb(0,108,168)" stroke-width="1" opacity="0.16470588235294117" d="M 266.5 142 L 267.5 144 L 266.5 142 Z " /><path fill="rgb(0,108,168)" stroke="rgb(0,108,168)" stroke-width="1" opacity="0.16470588235294117" d="M 13.5 144 L 12.5 146 L 13.5 144 Z " /><path fill="rgb(0,108,168)" stroke="rgb(0,108,168)" stroke-width="1" opacity="0.16470588235294117" d="M 84.5 144 L 85.5 146 L 84.5 144 Z " /><path fill="rgb(0,108,168)" stroke="rgb(0,108,168)" stroke-width="1" opacity="0.16470588235294117" d="M 196.5 144 L 195.5 146 L 196.5 144 Z " /><path fill="rgb(0,108,168)" stroke="rgb(0,108,168)" stroke-width="1" opacity="0.16470588235294117" d="M 47.5 145 L 46.5 147 L 47.5 145 Z " /><path fill="rgb(0,108,168)" stroke="rgb(0,108,168)" stroke-width="1" opacity="0.16470588235294117" d="M 126.5 145 L 130.5 150 L 126.5 145 Z " /><path fill="rgb(0,108,168)" stroke="rgb(0,108,168)" stroke-width="1" opacity="0.16470588235294117" d="M 89.5 147 L 90.5 149 L 89.5 147 Z " /><path fill="rgb(0,108,168)" stroke="rgb(0,108,168)" stroke-width="1" opacity="0.16470588235294117" d="M 153.5 147 L 151.5 150 L 153.5 147 Z " /><path fill="rgb(0,108,168)" stroke="rgb(0,108,168)" stroke-width="1" opacity="0.16470588235294117" d="M 191.5 147 L 188.5 151 L 191.5 147 Z " /><path fill="rgb(0,108,168)" stroke="rgb(0,108,168)" stroke-width="1" opacity="0.16470588235294117" d="M 10.5 149 L 11 150.5 L 9 151.5 L 10.5 149 Z " /><path fill="rgb(0,108,168)" stroke="rgb(0,108,168)" stroke-width="1" opacity="0.16470588235294117" d="M 42.5 149 L 40.5 152 L 42.5 149 Z " /><path fill="rgb(0,108,168)" stroke="rgb(0,108,168)" stroke-width="1" opacity="0.16470588235294117" d="M 238.5 149 L 239.5 151 L 238.5 149 Z " /><path fill="rgb(0,108,168)" stroke="rgb(0,108,168)" stroke-width="1" opacity="0.16470588235294117" d="M 94.5 151 L 96.5 154 L 94.5 151 Z " /><path fill="rgb(0,108,168)" stroke="rgb(0,108,168)" stroke-width="1" opacity="0.16470588235294117" d="M 132.5 151 L 124.5 160 L 132.5 151 Z " /><path fill="rgb(0,108,168)" stroke="rgb(0,108,168)" stroke-width="1" opacity="0.16470588235294117" d="M 149.5 151 L 147.5 154 L 149.5 151 Z " /><path fill="rgb(0,108,168)" stroke="rgb(0,108,168)" stroke-width="1" opacity="0.16470588235294117" d="M 184.5 153 L 178.5 160 L 184.5 153 Z " /><path fill="rgb(0,108,168)" stroke="rgb(0,108,168)" stroke-width="1" opacity="0.16470588235294117" d="M 242.5 153 L 244.5 156 L 242.5 153 Z " /><path fill="rgb(0,108,168)" stroke="rgb(0,108,168)" stroke-width="1" opacity="0.16470588235294117" d="M 145.5 155 L 143.5 158 L 145.5 155 Z " /><path fill="rgb(0,108,168)" stroke="rgb(0,108,168)" stroke-width="1" opacity="0.16470588235294117" d="M 100.5 156 L 103.5 160 L 100.5 156 Z " /><path fill="rgb(0,108,168)" stroke="rgb(0,108,168)" stroke-width="1" opacity="0.16470588235294117" d="M 245.5 157 L 247.5 160 L 245.5 157 Z " /><path fill="rgb(0,108,168)" stroke="rgb(0,108,168)" stroke-width="1" opacity="0.16470588235294117" d="M 5.5 162 L 6 163.5 L 4.5 168 L 4 164.5 L 5.5 162 Z " /><path fill="rgb(0,108,168)" stroke="rgb(0,108,168)" stroke-width="1" opacity="0.16470588235294117" d="M 107.5 162 L 111.5 167 L 107.5 162 Z " /><path fill="rgb(0,108,168)" stroke="rgb(0,108,168)" stroke-width="1" opacity="0.16470588235294117" d="M 31.5 164 L 32 166.5 L 31 166.5 L 31.5 164 Z " /><path fill="rgb(0,108,168)" stroke="rgb(0,108,168)" stroke-width="1" opacity="0.16470588235294117" d="M 249.5 165 L 251 168.5 L 250 168.5 L 249.5 165 Z " /><path fill="rgb(0,108,168)" stroke="rgb(0,108,168)" stroke-width="1" opacity="0.16470588235294117" d="M 276.5 165 L 277 167.5 L 276 167.5 L 276.5 165 Z " /><path fill="rgb(0,108,168)" stroke="rgb(0,108,168)" stroke-width="1" opacity="0.16470588235294117" d="M 30.5 168 L 31 170.5 L 29.5 175 L 29 171.5 L 30.5 168 Z " /><path fill="rgb(0,108,168)" stroke="rgb(0,108,168)" stroke-width="1" opacity="0.16470588235294117" d="M 166.5 170 L 153.5 184 L 166.5 170 Z " /><path fill="rgb(0,108,168)" stroke="rgb(0,108,168)" stroke-width="1" opacity="0.16470588235294117" d="M 251.5 171 L 252 174.5 L 251 174.5 L 251.5 171 Z " /><path fill="rgb(0,108,168)" stroke="rgb(0,108,168)" stroke-width="1" opacity="0.16470588235294117" d="M 127.5 172 L 124.5 176 L 127.5 172 Z " /><path fill="rgb(0,108,168)" stroke="rgb(0,108,168)" stroke-width="1" opacity="0.16470588235294117" d="M 120.5 179 L 113.5 187 L 120.5 179 Z " /><path fill="rgb(0,108,168)" stroke="rgb(0,108,168)" stroke-width="1" opacity="0.16470588235294117" d="M 29.5 181 L 30 183.5 L 29 183.5 L 29.5 181 Z " /><path fill="rgb(0,108,168)" stroke="rgb(0,108,168)" stroke-width="1" opacity="0.16470588235294117" d="M 251.5 181 L 252 184.5 L 251 184.5 L 251.5 181 Z " /><path fill="rgb(0,108,168)" stroke="rgb(0,108,168)" stroke-width="1" opacity="0.16470588235294117" d="M 30.5 185 L 31 187.5 L 30 187.5 L 30.5 185 Z " /><path fill="rgb(0,108,168)" stroke="rgb(0,108,168)" stroke-width="1" opacity="0.16470588235294117" d="M 151.5 185 L 150.5 187 L 151.5 185 Z " /><path fill="rgb(0,108,168)" stroke="rgb(0,108,168)" stroke-width="1" opacity="0.16470588235294117" d="M 4.5 188 L 6 193.5 L 5 193.5 L 4.5 188 Z " /><path fill="rgb(0,108,168)" stroke="rgb(0,108,168)" stroke-width="1" opacity="0.16470588235294117" d="M 111.5 188 L 107.5 193 L 111.5 188 Z " /><path fill="rgb(0,108,168)" stroke="rgb(0,108,168)" stroke-width="1" opacity="0.16470588235294117" d="M 6.5 195 L 7 197.5 L 6 197.5 L 6.5 195 Z " /><path fill="rgb(0,108,168)" stroke="rgb(0,108,168)" stroke-width="1" opacity="0.16470588235294117" d="M 33.5 195 L 36 198.5 L 34 197.5 L 33.5 195 Z " /><path fill="rgb(0,108,168)" stroke="rgb(0,108,168)" stroke-width="1" opacity="0.16470588235294117" d="M 103.5 195 L 102.5 197 L 103.5 195 Z " /><path fill="rgb(0,108,168)" stroke="rgb(0,108,168)" stroke-width="1" opacity="0.16470588235294117" d="M 246.5 197 L 245.5 199 L 246.5 197 Z " /><path fill="rgb(0,108,168)" stroke="rgb(0,108,168)" stroke-width="1" opacity="0.16470588235294117" d="M 137.5 198 L 134.5 202 L 137.5 198 Z " /><path fill="rgb(0,108,168)" stroke="rgb(0,108,168)" stroke-width="1" opacity="0.16470588235294117" d="M 99.5 199 L 98.5 201 L 99.5 199 Z " /><path fill="rgb(0,108,168)" stroke="rgb(0,108,168)" stroke-width="1" opacity="0.16470588235294117" d="M 36.5 200 L 38.5 203 L 36.5 200 Z " /><path fill="rgb(0,108,168)" stroke="rgb(0,108,168)" stroke-width="1" opacity="0.16470588235294117" d="M 244.5 200 L 242.5 203 L 244.5 200 Z " /><path fill="rgb(0,108,168)" stroke="rgb(0,108,168)" stroke-width="1" opacity="0.16470588235294117" d="M 95.5 203 L 94.5 205 L 95.5 203 Z " /><path fill="rgb(0,108,168)" stroke="rgb(0,108,168)" stroke-width="1" opacity="0.16470588235294117" d="M 131.5 204 L 130.5 206 L 131.5 204 Z " /><path fill="rgb(0,108,168)" stroke="rgb(0,108,168)" stroke-width="1" opacity="0.16470588235294117" d="M 271.5 205 L 270.5 207 L 271.5 205 Z " /><path fill="rgb(0,108,168)" stroke="rgb(0,108,168)" stroke-width="1" opacity="0.16470588235294117" d="M 42.5 206 L 49 210.5 L 47.5 211 L 42.5 206 Z " /><path fill="rgb(0,108,168)" stroke="rgb(0,108,168)" stroke-width="1" opacity="0.16470588235294117" d="M 238.5 206 L 236.5 209 L 238.5 206 Z " /><path fill="rgb(0,108,168)" stroke="rgb(0,108,168)" stroke-width="1" opacity="0.16470588235294117" d="M 127.5 208 L 126.5 210 L 127.5 208 Z " /><path fill="rgb(0,108,168)" stroke="rgb(0,108,168)" stroke-width="1" opacity="0.16470588235294117" d="M 89.5 209 L 83.5 216 L 89.5 209 Z " /><path fill="rgb(0,108,168)" stroke="rgb(0,108,168)" stroke-width="1" opacity="0.16470588235294117" d="M 234.5 209 L 233.5 211 L 234.5 209 Z " /><path fill="rgb(0,108,168)" stroke="rgb(0,108,168)" stroke-width="1" opacity="0.16470588235294117" d="M 12.5 210 L 16 214.5 L 13 212.5 L 12.5 210 Z " /><path fill="rgb(0,108,168)" stroke="rgb(0,108,168)" stroke-width="1" opacity="0.16470588235294117" d="M 124.5 211 L 122.5 214 L 124.5 211 Z " /><path fill="rgb(0,108,168)" stroke="rgb(0,108,168)" stroke-width="1" opacity="0.16470588235294117" d="M 267.5 212 L 265.5 215 L 267.5 212 Z " /><path fill="rgb(0,108,168)" stroke="rgb(0,108,168)" stroke-width="1" opacity="0.16470588235294117" d="M 58.5 214 L 67 215.5 L 62.5 216 L 58.5 215 L 58.5 214 Z " /><path fill="rgb(0,108,168)" stroke="rgb(0,108,168)" stroke-width="1" opacity="0.16470588235294117" d="M 219.5 214 L 222 214.5 L 219.5 215 L 219.5 214 Z " /><path fill="rgb(0,108,168)" stroke="rgb(0,108,168)" stroke-width="1" opacity="0.16470588235294117" d="M 214.5 215 L 218 215.5 L 214.5 216 L 214.5 215 Z " /><path fill="rgb(0,108,168)" stroke="rgb(0,108,168)" stroke-width="1" opacity="0.16470588235294117" d="M 16.5 216 L 19.5 220 L 16.5 216 Z " /><path fill="rgb(0,108,168)" stroke="rgb(0,108,168)" stroke-width="1" opacity="0.16470588235294117" d="M 264.5 216 L 263.5 218 L 264.5 216 Z " /><path fill="rgb(0,108,168)" stroke="rgb(0,108,168)" stroke-width="1" opacity="0.16470588235294117" d="M 25.5 225 L 28.5 229 L 25.5 225 Z " /><path fill="rgb(0,108,168)" stroke="rgb(0,108,168)" stroke-width="1" opacity="0.16470588235294117" d="M 254.5 226 L 252.5 229 L 254.5 226 Z " /><path fill="rgb(0,108,168)" stroke="rgb(0,108,168)" stroke-width="1" opacity="0.16470588235294117" d="M 33.5 231 L 34.5 233 L 33.5 231 Z " /><path fill="rgb(0,108,168)" stroke="rgb(0,108,168)" stroke-width="1" opacity="0.16470588235294117" d="M 53.5 239 L 59 240.5 L 55.5 241 L 53.5 239 Z " /><path fill="rgb(0,108,168)" stroke="rgb(0,108,168)" stroke-width="1" opacity="0.16470588235294117" d="M 226.5 239 L 229 239.5 L 222.5 241 L 222.5 240 L 226.5 239 Z " /><path fill="rgb(0,198,216)" stroke="rgb(0,198,216)" stroke-width="1" opacity="0.9803921568627451" d="M 54.5 116 L 78.5 116 Q 79.7 118.2 84.5 117 Q 98.9 121.6 109 130.5 Q 108.3 132.8 110.5 132 L 121 140 L 122.5 143 L 132 151.5 L 115.5 168 L 113.5 168 L 106 162 Q 107.1 159.3 104.5 160 L 97 153.5 Q 97.8 151.3 95.5 152 L 86.5 145 L 74.5 140 L 60.5 140 Q 45 143.5 37 154.5 Q 37.7 157.1 35 156 L 35 158.5 L 32 161.5 L 28 176.5 L 29 178.5 L 28 180.5 L 32 194.5 L 44.5 209 L 53.5 214 L 69.5 217 L 70.5 216 L 82 216 L 82 217.5 L 72.5 227 Q 70.3 226.3 71 228.5 L 58.5 240 L 55.5 240 L 52.5 238 L 50.5 238 L 48.5 237 L 46.5 237 L 35.5 233 L 23 223.5 Q 23.8 221.3 21.5 222 Q 13.1 213.4 8 201.5 L 4 187.5 L 4 169.5 L 5 164.5 L 7 162.5 L 7 160.5 Q 11 143 22.5 133 L 39.5 121 L 54.5 116 Z " /><path fill="rgb(0,162,254)" stroke="rgb(0,162,254)" stroke-width="1" opacity="0.7215686274509804" d="M 207.5 115 L 221 115.5 L 207.5 116 L 207.5 115 Z " /><path fill="rgb(0,162,254)" stroke="rgb(0,162,254)" stroke-width="1" opacity="0.7215686274509804" d="M 200.5 116 L 203 116.5 L 200.5 117 L 200.5 116 Z " /><path fill="rgb(0,162,254)" stroke="rgb(0,162,254)" stroke-width="1" opacity="0.7215686274509804" d="M 225.5 116 L 228 116.5 L 225.5 117 L 225.5 116 Z " /><path fill="rgb(0,162,254)" stroke="rgb(0,162,254)" stroke-width="1" opacity="0.7215686274509804" d="M 186.5 121 L 185.5 123 L 183.5 124 L 184.5 122 L 186.5 121 Z " /><path fill="rgb(0,162,254)" stroke="rgb(0,162,254)" stroke-width="1" opacity="0.7215686274509804" d="M 179.5 125 L 177.5 128 L 172.5 131 L 173.5 129 L 179.5 125 Z " /><path fill="rgb(0,162,254)" stroke="rgb(0,162,254)" stroke-width="1" opacity="0.7215686274509804" d="M 250.5 126 L 252.5 129 L 250.5 126 Z " /><path fill="rgb(0,162,254)" stroke="rgb(0,162,254)" stroke-width="1" opacity="0.7215686274509804" d="M 254.5 129 L 255.5 131 L 254.5 129 Z " /><path fill="rgb(0,162,254)" stroke="rgb(0,162,254)" stroke-width="1" opacity="0.7215686274509804" d="M 169.5 133 L 166.5 137 L 169.5 133 Z " /><path fill="rgb(0,162,254)" stroke="rgb(0,162,254)" stroke-width="1" opacity="0.7215686274509804" d="M 258.5 133 L 262.5 138 L 258.5 133 Z " /><path fill="rgb(0,162,254)" stroke="rgb(0,162,254)" stroke-width="1" opacity="0.7215686274509804" d="M 212.5 139 L 215 139.5 L 212.5 140 L 212.5 139 Z " /><path fill="rgb(0,162,254)" stroke="rgb(0,162,254)" stroke-width="1" opacity="0.7215686274509804" d="M 263.5 139 L 268 144.5 L 265 142.5 L 263.5 139 Z " /><path fill="rgb(0,162,254)" stroke="rgb(0,162,254)" stroke-width="1" opacity="0.7215686274509804" d="M 161.5 140 L 160.5 142 L 161.5 140 Z " /><path fill="rgb(0,162,254)" stroke="rgb(0,162,254)" stroke-width="1" opacity="0.7215686274509804" d="M 157.5 144 L 149.5 153 L 157.5 144 Z " /><path fill="rgb(0,162,254)" stroke="rgb(0,162,254)" stroke-width="1" opacity="0.7215686274509804" d="M 195.5 144 L 194.5 146 L 195.5 144 Z " /><path fill="rgb(0,162,254)" stroke="rgb(0,162,254)" stroke-width="1" opacity="0.7215686274509804" d="M 232.5 144 L 233.5 146 L 232.5 144 Z " /><path fill="rgb(0,162,254)" stroke="rgb(0,162,254)" stroke-width="1" opacity="0.7215686274509804" d="M 237.5 147 L 244.5 155 L 237.5 147 Z " /><path fill="rgb(0,162,254)" stroke="rgb(0,162,254)" stroke-width="1" opacity="0.7215686274509804" d="M 189.5 148 L 185.5 153 L 189.5 148 Z " /><path fill="rgb(0,162,254)" stroke="rgb(0,162,254)" stroke-width="1" opacity="0.7215686274509804" d="M 147.5 154 L 145.5 157 L 147.5 154 Z " /><path fill="rgb(0,162,254)" stroke="rgb(0,162,254)" stroke-width="1" opacity="0.7215686274509804" d="M 180.5 156 L 173.5 164 L 180.5 156 Z " /><path fill="rgb(0,162,254)" stroke="rgb(0,162,254)" stroke-width="1" opacity="0.7215686274509804" d="M 245.5 156 L 246.5 158 L 245.5 156 Z " /><path fill="rgb(0,162,254)" stroke="rgb(0,162,254)" stroke-width="1" opacity="0.7215686274509804" d="M 273.5 157 L 275 160.5 L 274 160.5 L 273.5 157 Z " /><path fill="rgb(0,162,254)" stroke="rgb(0,162,254)" stroke-width="1" opacity="0.7215686274509804" d="M 143.5 158 L 142.5 160 L 143.5 158 Z " /><path fill="rgb(0,162,254)" stroke="rgb(0,162,254)" stroke-width="1" opacity="0.7215686274509804" d="M 140.5 160 L 140 161.5 Q 140.8 163.8 138.5 163 L 137 163.5 L 140.5 160 Z " /><path fill="rgb(0,162,254)" stroke="rgb(0,162,254)" stroke-width="1" opacity="0.7215686274509804" d="M 275.5 162 L 276 164.5 L 275 164.5 L 275.5 162 Z " /><path fill="rgb(0,162,254)" stroke="rgb(0,162,254)" stroke-width="1" opacity="0.7215686274509804" d="M 135.5 165 L 124.5 177 L 135.5 165 Z " /><path fill="rgb(0,162,254)" stroke="rgb(0,162,254)" stroke-width="1" opacity="0.7215686274509804" d="M 171.5 165 L 169.5 168 Q 167.3 167.3 168 169.5 L 167 169.5 L 168.5 167 L 171.5 165 Z " /><path fill="rgb(0,162,254)" stroke="rgb(0,162,254)" stroke-width="1" opacity="0.7215686274509804" d="M 251.5 168 L 252 170.5 L 251 170.5 L 251.5 168 Z " /><path fill="rgb(0,162,254)" stroke="rgb(0,162,254)" stroke-width="1" opacity="0.7215686274509804" d="M 276.5 168 L 277 172.5 L 276 172.5 L 276.5 168 Z " /><path fill="rgb(0,162,254)" stroke="rgb(0,162,254)" stroke-width="1" opacity="0.7215686274509804" d="M 164.5 171 L 163.5 173 L 164.5 171 Z " /><path fill="rgb(0,162,254)" stroke="rgb(0,162,254)" stroke-width="1" opacity="0.7215686274509804" d="M 252.5 173 L 253 182.5 L 252 182.5 L 252.5 173 Z " /><path fill="rgb(0,162,254)" stroke="rgb(0,162,254)" stroke-width="1" opacity="0.7215686274509804" d="M 157.5 178 L 149.5 187 L 157.5 178 Z " /><path fill="rgb(0,162,254)" stroke="rgb(0,162,254)" stroke-width="1" opacity="0.7215686274509804" d="M 120.5 180 L 118.5 183 L 120.5 180 Z " /><path fill="rgb(0,162,254)" stroke="rgb(0,162,254)" stroke-width="1" opacity="0.7215686274509804" d="M 276.5 183 L 277 188.5 L 276 188.5 L 276.5 183 Z " /><path fill="rgb(0,162,254)" stroke="rgb(0,162,254)" stroke-width="1" opacity="0.7215686274509804" d="M 251.5 185 L 252 187.5 L 251 187.5 L 251.5 185 Z " /><path fill="rgb(0,162,254)" stroke="rgb(0,162,254)" stroke-width="1" opacity="0.7215686274509804" d="M 147.5 188 L 145.5 191 L 147.5 188 Z " /><path fill="rgb(0,162,254)" stroke="rgb(0,162,254)" stroke-width="1" opacity="0.7215686274509804" d="M 275.5 190 L 276 193.5 L 275 193.5 L 275.5 190 Z " /><path fill="rgb(0,162,254)" stroke="rgb(0,162,254)" stroke-width="1" opacity="0.7215686274509804" d="M 143.5 192 L 141.5 195 L 143.5 192 Z " /><path fill="rgb(0,162,254)" stroke="rgb(0,162,254)" stroke-width="1" opacity="0.7215686274509804" d="M 106.5 193 L 108 193.5 L 96.5 204 L 106.5 193 Z " /><path fill="rgb(0,162,254)" stroke="rgb(0,162,254)" stroke-width="1" opacity="0.7215686274509804" d="M 274.5 195 L 275 196.5 L 273.5 199 L 273 197.5 L 274.5 195 Z " /><path fill="rgb(0,162,254)" stroke="rgb(0,162,254)" stroke-width="1" opacity="0.7215686274509804" d="M 139.5 196 L 138.5 198 L 137 197.5 L 139.5 196 Z " /><path fill="rgb(0,162,254)" stroke="rgb(0,162,254)" stroke-width="1" opacity="0.7215686274509804" d="M 247.5 196 L 248 197.5 L 245 199.5 L 247.5 196 Z " /><path fill="rgb(0,162,254)" stroke="rgb(0,162,254)" stroke-width="1" opacity="0.7215686274509804" d="M 133.5 201 L 120.5 216 L 217 216.5 L 119 217 L 119 215.5 L 133.5 201 Z " /><path fill="rgb(0,162,254)" stroke="rgb(0,162,254)" stroke-width="1" opacity="0.7215686274509804" d="M 244.5 201 L 241.5 205 L 244.5 201 Z " /><path fill="rgb(0,162,254)" stroke="rgb(0,162,254)" stroke-width="1" opacity="0.7215686274509804" d="M 94.5 205 L 92.5 208 Q 90.3 207.3 91 209.5 L 87 212.5 L 91.5 207 L 94.5 205 Z " /><path fill="rgb(0,162,254)" stroke="rgb(0,162,254)" stroke-width="1" opacity="0.7215686274509804" d="M 239.5 206 L 238.5 208 L 239.5 206 Z " /><path fill="rgb(0,162,254)" stroke="rgb(0,162,254)" stroke-width="1" opacity="0.7215686274509804" d="M 235.5 209 L 237 209.5 L 234.5 211 L 235.5 209 Z " /><path fill="rgb(0,162,254)" stroke="rgb(0,162,254)" stroke-width="1" opacity="0.7215686274509804" d="M 267.5 211 L 266.5 213 L 267.5 211 Z " /><path fill="rgb(0,162,254)" stroke="rgb(0,162,254)" stroke-width="1" opacity="0.7215686274509804" d="M 222.5 214 L 225 214.5 L 222.5 215 L 222.5 214 Z " /><path fill="rgb(0,162,254)" stroke="rgb(0,162,254)" stroke-width="1" opacity="0.7215686274509804" d="M 84.5 215 L 83.5 217 L 82 216.5 L 84.5 215 Z " /><path fill="rgb(0,162,254)" stroke="rgb(0,162,254)" stroke-width="1" opacity="0.7215686274509804" d="M 218.5 215 L 221 215.5 L 218.5 216 L 218.5 215 Z " /><path fill="rgb(0,162,254)" stroke="rgb(0,162,254)" stroke-width="1" opacity="0.7215686274509804" d="M 67.5 216 L 70 216.5 L 67.5 217 L 67.5 216 Z " /><path fill="rgb(0,162,254)" stroke="rgb(0,162,254)" stroke-width="1" opacity="0.7215686274509804" d="M 262.5 218 L 255.5 226 L 262.5 218 Z " /><path fill="rgb(0,162,254)" stroke="rgb(0,162,254)" stroke-width="1" opacity="0.7215686274509804" d="M 253.5 226 L 250.5 230 L 247.5 232 L 249.5 229 L 253.5 226 Z " /><path fill="rgb(0,162,254)" stroke="rgb(0,162,254)" stroke-width="1" opacity="0.7215686274509804" d="M 240.5 234 L 239.5 236 L 238 235.5 L 240.5 234 Z " /><path fill="rgb(0,162,254)" stroke="rgb(0,162,254)" stroke-width="1" opacity="0.7215686274509804" d="M 59.5 240 L 69 240.5 L 59.5 241 L 59.5 240 Z " /><path fill="rgb(0,162,254)" stroke="rgb(0,162,254)" stroke-width="1" opacity="0.7215686274509804" d="M 212.5 240 L 222 240.5 L 212.5 241 L 212.5 240 Z " /><path fill="rgb(0,162,255)" stroke="rgb(0,162,255)" stroke-width="1" opacity="0.996078431372549" d="M 62.5 115 L 73 115.5 L 62.5 116 L 62.5 115 Z " /><path fill="rgb(0,162,255)" stroke="rgb(0,162,255)" stroke-width="1" opacity="0.996078431372549" d="M 222.5 116 L 225 116.5 L 222.5 117 L 222.5 116 Z " /><path fill="rgb(0,162,255)" stroke="rgb(0,162,255)" stroke-width="1" opacity="0.996078431372549" d="M 194.5 118 L 196 118.5 L 192.5 120 L 192.5 119 L 194.5 118 Z " /><path fill="rgb(0,162,255)" stroke="rgb(0,162,255)" stroke-width="1" opacity="0.996078431372549" d="M 244.5 123 L 245.5 125 L 244.5 123 Z " /><path fill="rgb(0,162,255)" stroke="rgb(0,162,255)" stroke-width="1" opacity="0.996078431372549" d="M 249.5 126 L 250.5 128 L 249.5 126 Z " /><path fill="rgb(0,162,255)" stroke="rgb(0,162,255)" stroke-width="1" opacity="0.996078431372549" d="M 173.5 130 L 170.5 134 L 173.5 130 Z " /><path fill="rgb(0,162,255)" stroke="rgb(0,162,255)" stroke-width="1" opacity="0.996078431372549" d="M 255.5 131 L 257.5 134 L 255.5 131 Z " /><path fill="rgb(0,162,255)" stroke="rgb(0,162,255)" stroke-width="1" opacity="0.996078431372549" d="M 259.5 135 L 262.5 139 L 259.5 135 Z " /><path fill="rgb(0,162,255)" stroke="rgb(0,162,255)" stroke-width="1" opacity="0.996078431372549" d="M 165.5 137 L 162.5 141 L 165.5 137 Z " /><path fill="rgb(0,162,255)" stroke="rgb(0,162,255)" stroke-width="1" opacity="0.996078431372549" d="M 207.5 139 L 212 139.5 L 207.5 140 L 207.5 139 Z " /><path fill="rgb(0,162,255)" stroke="rgb(0,162,255)" stroke-width="1" opacity="0.996078431372549" d="M 215.5 139 L 221 139.5 L 215.5 140 L 215.5 139 Z " /><path fill="rgb(0,162,255)" stroke="rgb(0,162,255)" stroke-width="1" opacity="0.996078431372549" d="M 160.5 142 L 158.5 145 L 160.5 142 Z " /><path fill="rgb(0,162,255)" stroke="rgb(0,162,255)" stroke-width="1" opacity="0.996078431372549" d="M 194.5 144 L 193.5 146 L 194.5 144 Z " /><path fill="rgb(0,162,255)" stroke="rgb(0,162,255)" stroke-width="1" opacity="0.996078431372549" d="M 233.5 144 L 234.5 146 L 233.5 144 Z " /><path fill="rgb(0,162,255)" stroke="rgb(0,162,255)" stroke-width="1" opacity="0.996078431372549" d="M 156.5 146 L 154.5 149 L 156.5 146 Z " /><path fill="rgb(0,162,255)" stroke="rgb(0,162,255)" stroke-width="1" opacity="0.996078431372549" d="M 191.5 146 L 190.5 148 L 191.5 146 Z " /><path fill="rgb(0,162,255)" stroke="rgb(0,162,255)" stroke-width="1" opacity="0.996078431372549" d="M 152.5 150 L 150.5 153 L 152.5 150 Z " /><path fill="rgb(0,162,255)" stroke="rgb(0,162,255)" stroke-width="1" opacity="0.996078431372549" d="M 186.5 150 L 181.5 156 L 186.5 150 Z " /><path fill="rgb(0,162,255)" stroke="rgb(0,162,255)" stroke-width="1" opacity="0.996078431372549" d="M 245.5 155 L 246.5 157 L 245.5 155 Z " /><path fill="rgb(0,162,255)" stroke="rgb(0,162,255)" stroke-width="1" opacity="0.996078431372549" d="M 247.5 158 L 248.5 160 L 247.5 158 Z " /><path fill="rgb(0,162,255)" stroke="rgb(0,162,255)" stroke-width="1" opacity="0.996078431372549" d="M 141.5 160 L 140.5 162 L 141.5 160 Z " /><path fill="rgb(0,162,255)" stroke="rgb(0,162,255)" stroke-width="1" opacity="0.996078431372549" d="M 138.5 163 L 135.5 167 L 138.5 163 Z " /><path fill="rgb(0,162,255)" stroke="rgb(0,162,255)" stroke-width="1" opacity="0.996078431372549" d="M 172.5 163 L 171.5 165 L 172.5 163 Z " /><path fill="rgb(0,162,255)" stroke="rgb(0,162,255)" stroke-width="1" opacity="0.996078431372549" d="M 166.5 169 L 165.5 171 L 166.5 169 Z " /><path fill="rgb(0,162,255)" stroke="rgb(0,162,255)" stroke-width="1" opacity="0.996078431372549" d="M 162.5 173 L 161.5 175 L 162.5 173 Z " /><path fill="rgb(0,162,255)" stroke="rgb(0,162,255)" stroke-width="1" opacity="0.996078431372549" d="M 276.5 173 L 277 176.5 L 276 176.5 L 276.5 173 Z " /><path fill="rgb(0,162,255)" stroke="rgb(0,162,255)" stroke-width="1" opacity="0.996078431372549" d="M 159.5 176 L 158.5 178 L 159.5 176 Z " /><path fill="rgb(0,162,255)" stroke="rgb(0,162,255)" stroke-width="1" opacity="0.996078431372549" d="M 124.5 177 L 123.5 179 L 124.5 177 Z " /><path fill="rgb(0,162,255)" stroke="rgb(0,162,255)" stroke-width="1" opacity="0.996078431372549" d="M 276.5 179 L 277 182.5 L 276 182.5 L 276.5 179 Z " /><path fill="rgb(0,162,255)" stroke="rgb(0,162,255)" stroke-width="1" opacity="0.996078431372549" d="M 152.5 182 L 151.5 184 L 152.5 182 Z " /><path fill="rgb(0,162,255)" stroke="rgb(0,162,255)" stroke-width="1" opacity="0.996078431372549" d="M 117.5 183 L 116.5 185 L 117.5 183 Z " /><path fill="rgb(0,162,255)" stroke="rgb(0,162,255)" stroke-width="1" opacity="0.996078431372549" d="M 114.5 186 L 112.5 189 L 114.5 186 Z " /><path fill="rgb(0,162,255)" stroke="rgb(0,162,255)" stroke-width="1" opacity="0.996078431372549" d="M 148.5 186 L 147.5 188 L 148.5 186 Z " /><path fill="rgb(0,162,255)" stroke="rgb(0,162,255)" stroke-width="1" opacity="0.996078431372549" d="M 110.5 190 L 108.5 193 L 110.5 190 Z " /><path fill="rgb(0,162,255)" stroke="rgb(0,162,255)" stroke-width="1" opacity="0.996078431372549" d="M 144.5 190 L 143.5 192 L 144.5 190 Z " /><path fill="rgb(0,162,255)" stroke="rgb(0,162,255)" stroke-width="1" opacity="0.996078431372549" d="M 141.5 193 L 138.5 197 L 141.5 193 Z " /><path fill="rgb(0,162,255)" stroke="rgb(0,162,255)" stroke-width="1" opacity="0.996078431372549" d="M 106.5 194 L 105.5 196 L 106.5 194 Z " /><path fill="rgb(0,162,255)" stroke="rgb(0,162,255)" stroke-width="1" opacity="0.996078431372549" d="M 241.5 205 L 240.5 207 L 241.5 205 Z " /><path fill="rgb(0,162,255)" stroke="rgb(0,162,255)" stroke-width="1" opacity="0.996078431372549" d="M 86.5 213 L 85.5 215 L 86.5 213 Z " /><path fill="rgb(0,162,255)" stroke="rgb(0,162,255)" stroke-width="1" opacity="0.996078431372549" d="M 120.5 213 L 119.5 215 L 120.5 213 Z " /><path fill="rgb(0,162,255)" stroke="rgb(0,162,255)" stroke-width="1" opacity="0.996078431372549" d="M 265.5 213 L 264.5 215 L 265.5 213 Z " /><path fill="rgb(0,162,255)" stroke="rgb(0,162,255)" stroke-width="1" opacity="0.996078431372549" d="M 263.5 216 L 261.5 219 L 263.5 216 Z " /><path fill="rgb(0,162,255)" stroke="rgb(0,162,255)" stroke-width="1" opacity="0.996078431372549" d="M 82.5 217 L 70.5 230 L 71 228.5 Q 70.3 226.3 72.5 227 L 82.5 217 Z " /><path fill="rgb(0,162,255)" stroke="rgb(0,162,255)" stroke-width="1" opacity="0.996078431372549" d="M 68.5 230 L 59.5 240 L 68.5 230 Z " /><path fill="rgb(0,162,255)" stroke="rgb(0,162,255)" stroke-width="1" opacity="0.996078431372549" d="M 247.5 230 L 246.5 232 L 247.5 230 Z " /><path fill="rgb(0,162,255)" stroke="rgb(0,162,255)" stroke-width="1" opacity="0.996078431372549" d="M 69.5 240 L 77 240.5 L 69.5 241 L 69.5 240 Z " /><path fill="rgb(0,162,255)" stroke="rgb(0,162,255)" stroke-width="1" opacity="0.996078431372549" d="M 205.5 240 L 212 240.5 L 205.5 241 L 205.5 240 Z " /><path fill="rgb(0,162,255)" stroke="rgb(0,162,255)" stroke-width="1" opacity="1" d="M 205.5 116 L 221.5 116 L 231.5 118 Q 245.1 122.7 255 130 L 257.5 134 Q 259.8 133.3 259 135.5 Q 264.3 138.3 265 144 Q 267.7 142.9 267 145.5 L 275 162.5 L 277 178.5 L 276 179.5 L 275 193.5 L 272 201.5 L 261 220 L 259 220 L 259 222 Q 256.3 220.9 257 223.5 L 243.5 233 L 223.5 240 L 205.5 240 L 204.5 241 L 77.5 241 L 76.5 240 L 60 239.5 L 87.5 213 L 89 213 L 89 211.5 L 104.5 196 L 125 177.5 L 126.5 175 Q 128.8 175.8 128 173.5 L 132 171 L 134.5 167 L 153 150.5 Q 152.3 148.3 154.5 149 L 157 145 L 161 142.5 Q 160.3 140.3 162.5 141 L 179.5 126 L 190.5 120 L 205.5 116 Z M 208 139 L 195 144 L 179 156 L 177 160 Q 174 159 175 162 L 173 163 L 171 166 L 170 166 L 157 179 Q 154 178 155 181 L 153 182 L 151 185 L 149 186 L 147 189 L 145 190 L 143 193 L 142 193 L 127 208 Q 124 207 125 210 L 121 213 L 119 216 L 119 217 L 218 217 L 231 213 Q 234 214 233 211 L 241 207 L 246 201 Q 245 198 248 199 L 253 184 L 253 172 L 247 157 Q 240 147 230 142 Q 222 137 208 139 Z " /></svg>